HIERARCHY
ROOT Hips
{
	OFFSET -0.001795 -0.223333 0.028219
	CHANNELS 6 Xposition Yposition Zposition Zrotation Yrotation Xrotation 
	JOINT LeftUpLeg
	{
		OFFSET 0.069520 -0.091406 -0.006815
		CHANNELS 3 Zrotation Yrotation Xrotation
		JOINT LeftLeg
		{
			OFFSET 0.034277 -0.375199 -0.004496
			CHANNELS 3 Zrotation Yrotation Xrotation
			JOINT LeftFoot
			{
				OFFSET -0.013596 -0.397961 -0.043693
				CHANNELS 3 Zrotation Yrotation Xrotation
				JOINT LeftToe
				{
					OFFSET 0.026358 -0.055791 0.119288
					CHANNELS 3 Zrotation Yrotation Xrotation
					End Site
					{
						OFFSET 0.000000 0.000000 0.000000
					}
				}
			}
		}
	}
	JOINT RightUpLeg
	{
		OFFSET -0.067670 -0.090522 -0.004320
		CHANNELS 3 Zrotation Yrotation Xrotation
		JOINT RightLeg
		{
			OFFSET -0.038290 -0.382569 -0.008850
			CHANNELS 3 Zrotation Yrotation Xrotation
			JOINT RightFoot
			{
				OFFSET 0.015774 -0.398415 -0.042312
				CHANNELS 3 Zrotation Yrotation Xrotation
				JOINT RightToe
				{
					OFFSET -0.025372 -0.048144 0.123348
					CHANNELS 3 Zrotation Yrotation Xrotation
					End Site
					{
						OFFSET 0.000000 0.000000 0.000000
					}
				}
			}
		}
	}
	JOINT Spine
	{
		OFFSET -0.002533 0.108963 -0.026696
		CHANNELS 3 Zrotation Yrotation Xrotation
		JOINT Spine1
		{
			OFFSET 0.005487 0.135180 0.001092
			CHANNELS 3 Zrotation Yrotation Xrotation
			JOINT Spine2
			{
				OFFSET 0.001457 0.052922 0.025425
				CHANNELS 3 Zrotation Yrotation Xrotation
				JOINT Neck
				{
					OFFSET -0.002778 0.213870 -0.042857
					CHANNELS 3 Zrotation Yrotation Xrotation
					JOINT Head
					{
						OFFSET 0.005152 0.064970 0.051349
						CHANNELS 3 Zrotation Yrotation Xrotation
						End Site
						{
							OFFSET 0.000000 0.000000 0.000000
						}
					}
				}
				JOINT LeftShoulder
				{
					OFFSET 0.078845 0.121749 -0.034090
					CHANNELS 3 Zrotation Yrotation Xrotation
					JOINT LeftArm
					{
						OFFSET 0.090977 0.030469 -0.008868
						CHANNELS 3 Zrotation Yrotation Xrotation
						JOINT LeftForeArm
						{
							OFFSET 0.259612 -0.012772 -0.027456
							CHANNELS 3 Zrotation Yrotation Xrotation
							JOINT LeftHand
							{
								OFFSET 0.249234 0.008986 -0.001171
								CHANNELS 3 Zrotation Yrotation Xrotation
								End Site
								{
									OFFSET 0.000000 0.000000 0.000000
								}
							}
						}
					}
				}
				JOINT RightShoulder
				{
					OFFSET -0.081759 0.118833 -0.038615
					CHANNELS 3 Zrotation Yrotation Xrotation
					JOINT RightArm
					{
						OFFSET -0.096012 0.032551 -0.009143
						CHANNELS 3 Zrotation Yrotation Xrotation
						JOINT RightForeArm
						{
							OFFSET -0.253742 -0.013329 -0.021401
							CHANNELS 3 Zrotation Yrotation Xrotation
							JOINT RightHand
							{
								OFFSET -0.255298 0.007772 -0.005559
								CHANNELS 3 Zrotation Yrotation Xrotation
								End Site
								{
									OFFSET 0.000000 0.000000 0.000000
								}
							}
						}
					}
				}
			}
		}
	}
}
MOTION
Frames: 16
Frame Time: 0.050000
0.000000 0.959477 0.000000 -1.727464 3.513709 2.497688 3.891984 -0.202452 -1.872496 -4.441979 0.417189 -4.636529 3.038090 10.121146 12.882301 0.000000 0.000000 0.000000 0.455598 0.382183 -3.698594 2.794133 -0.320634 -0.275435 -3.640200 -11.604974 13.201541 0.000000 0.000000 0.000000 -0.639007 -0.118792 3.542897 3.116904 0.011144 -26.225968 -0.806276 -0.282796 26.076341 1.882792 0.700459 -24.473012 0.000000 0.000000 0.000000 -20.205933 -2.210648 -0.505173 -48.802377 -12.201088 -3.008263 -31.425301 -26.621355 8.954415 0.000000 0.000000 0.000000 14.159722 3.510265 1.414769 55.771722 3.452516 -6.118721 23.392467 28.088823 7.124849 0.000000 0.000000 0.000000 
0.000020 0.959175 0.000142 -1.893139 2.789869 3.300648 4.199957 -0.237887 -2.439790 -4.108047 0.405664 -4.384775 3.129042 9.923487 11.743150 0.000000 0.000000 0.000000 0.320482 0.438891 -4.273834 3.163547 -0.354755 -0.181895 -3.387212 -11.115469 12.457374 0.000000 0.000000 0.000000 -0.576993 -0.088489 2.693657 2.582142 0.097627 -25.593352 0.244677 -0.023870 25.313198 1.614964 0.856416 -24.822481 0.000000 0.000000 0.000000 -20.628666 -1.531623 -0.887370 -48.053136 -11.623803 -3.129983 -33.801610 -26.115601 9.390789 0.000000 0.000000 0.000000 13.034849 3.855434 1.516710 57.232021 2.642620 -6.506984 23.333845 28.815623 7.302143 0.000000 0.000000 0.000000 
0.000056 0.959633 -0.000119 -1.421075 2.926396 3.651405 4.250307 -0.269433 -2.948601 -4.555543 0.439308 -3.315302 2.439767 8.868797 11.877129 0.000000 0.000000 0.000000 -0.137725 0.501015 -4.960230 2.979187 -0.326948 0.453487 -3.185306 -10.691100 12.288148 0.000000 0.000000 0.000000 -0.753496 -0.075010 2.557538 2.745093 0.100523 -26.477653 -0.365228 0.430876 25.768810 1.286259 1.139436 -24.847946 0.000000 0.000000 0.000000 -19.835070 -1.833027 -0.787396 -48.140720 -10.784931 -3.472698 -34.063994 -26.470422 9.537998 0.000000 0.000000 0.000000 13.729167 4.568112 1.982358 56.478752 2.470024 -6.554340 22.652153 29.170409 7.233619 0.000000 0.000000 0.000000 
0.000016 0.959251 -0.000441 -1.466092 2.401187 4.483820 4.612296 -0.337712 -4.207949 -5.042914 0.481130 -3.117022 2.803638 9.455749 12.133536 0.000000 0.000000 0.000000 -0.306838 0.594402 -5.946873 3.278173 -0.357907 0.322634 -2.961565 -10.449447 12.906955 0.000000 0.000000 0.000000 -1.130400 -0.030974 1.763703 3.204980 -0.002475 -26.491973 -0.172683 0.590803 25.596284 1.193707 1.163525 -24.724137 0.000000 0.000000 0.000000 -20.330981 -0.727044 -1.421236 -48.151667 -10.528544 -3.533078 -34.108669 -25.252483 9.104576 0.000000 0.000000 0.000000 13.250868 4.850894 2.071415 55.947465 2.764918 -6.321844 23.943348 29.335539 7.604499 0.000000 0.000000 0.000000 
-0.000100 0.959357 -0.000890 -1.397923 1.960158 4.399168 4.531710 -0.336519 -4.259262 -5.101024 0.494960 -2.774111 2.794066 9.323537 11.832730 0.000000 0.000000 0.000000 -0.365410 0.600436 -6.027106 3.232206 -0.348992 0.340223 -2.923792 -10.468878 13.078602 0.000000 0.000000 0.000000 -1.087951 -0.032183 1.751626 3.370513 -0.059380 -26.124712 -0.375238 0.908671 25.303226 1.341633 1.041769 -24.081096 0.000000 0.000000 0.000000 -20.124134 -0.803820 -1.376393 -47.974140 -10.177907 -3.626856 -33.610583 -24.748238 8.771251 0.000000 0.000000 0.000000 13.077675 4.606105 1.938767 55.027191 3.239051 -5.988129 26.315569 30.996987 8.781517 0.000000 0.000000 0.000000 
-0.000256 0.959512 -0.001574 -1.448129 1.163267 4.622341 4.649779 -0.348519 -4.619616 -5.271525 0.519250 -2.705348 3.551314 10.431684 11.729137 0.000000 0.000000 0.000000 -0.401949 0.642708 -6.471135 3.355379 -0.355144 0.437986 -2.329255 -9.402175 12.706813 0.000000 0.000000 0.000000 -1.118868 -0.019125 1.408517 3.472728 -0.079614 -26.321203 -0.077724 1.310912 25.877957 1.118526 1.161941 -24.116368 0.000000 0.000000 0.000000 -20.419254 -0.545716 -1.501108 -47.664076 -10.158732 -3.666313 -33.437360 -23.631603 8.336410 0.000000 0.000000 0.000000 12.731447 4.963441 2.094201 54.250394 4.312489 -5.498448 29.308299 32.923251 10.361320 0.000000 0.000000 0.000000 
-0.000441 0.959391 -0.002292 -1.471756 0.577732 4.706437 4.612329 -0.342805 -4.583863 -5.143391 0.513354 -2.962315 3.782805 10.795914 11.992239 0.000000 0.000000 0.000000 -0.418379 0.674268 -6.800503 3.190366 -0.327363 0.860644 -2.107838 -9.058840 12.655653 0.000000 0.000000 0.000000 -0.959442 -0.024047 1.399648 3.517955 -0.100782 -26.211285 -0.288640 1.197853 25.885960 1.098446 1.103990 -24.224265 0.000000 0.000000 0.000000 -20.698225 -0.596725 -1.356570 -47.271253 -9.859438 -3.791237 -32.291404 -22.922603 7.848546 0.000000 0.000000 0.000000 12.255957 5.231619 2.126947 53.502428 5.179886 -5.068664 32.622317 36.226508 12.678562 0.000000 0.000000 0.000000 
-0.000666 0.958913 -0.002822 -1.485463 0.178762 5.133235 4.682958 -0.365454 -5.047925 -5.261025 0.523247 -3.289646 4.082243 11.232940 11.998256 0.000000 0.000000 0.000000 -0.507145 0.703975 -7.124153 3.329054 -0.340799 0.704247 -1.897177 -8.633030 12.289095 0.000000 0.000000 0.000000 -1.024634 -0.001252 0.820771 3.633997 -0.142914 -25.966487 -0.399044 1.344169 25.875515 0.912795 1.160642 -23.591723 0.000000 0.000000 0.000000 -20.161329 -0.973853 -1.065693 -47.449789 -10.264913 -3.648922 -31.861989 -22.316142 7.546784 0.000000 0.000000 0.000000 11.373937 5.216776 2.088272 53.303035 6.275632 -4.559997 36.728515 40.745459 16.218710 0.000000 0.000000 0.000000 
-0.000899 0.958487 -0.002979 -1.490494 -0.528605 5.264896 4.613743 -0.363885 -5.093241 -4.961263 0.506902 -3.430022 4.347965 11.592090 12.031182 0.000000 0.000000 0.000000 -0.617400 0.709683 -7.208848 3.227974 -0.325050 0.598525 -1.638277 -8.242127 12.287911 0.000000 0.000000 0.000000 -0.981415 0.003450 0.658568 3.536387 -0.124250 -26.027932 -0.291729 1.381999 25.998050 1.124667 0.951694 -23.374298 0.000000 0.000000 0.000000 -20.369679 -1.014786 -0.934476 -47.213133 -10.568445 -3.561415 -31.106101 -21.821376 7.237734 0.000000 0.000000 0.000000 11.050814 4.867624 1.854665 52.154988 7.255441 -4.098470 41.264627 47.636652 21.589776 0.000000 0.000000 0.000000 
-0.001050 0.958049 -0.002919 -1.566004 -0.746484 5.462126 4.785838 -0.367197 -5.240914 -4.922819 0.503437 -3.734015 4.353203 11.680221 12.652193 0.000000 0.000000 0.000000 -0.844863 0.715727 -7.328294 3.486490 -0.355897 0.032969 -1.576720 -8.247357 12.640869 0.000000 0.000000 0.000000 -0.899346 0.022202 0.051776 3.741100 -0.182945 -25.841302 -0.480011 1.613963 26.262159 1.028056 0.986823 -22.749146 0.000000 0.000000 0.000000 -19.988996 -1.379778 -0.718109 -47.429265 -10.995065 -3.424555 -31.313370 -21.140206 7.045179 0.000000 0.000000 0.000000 10.763878 4.517130 1.712329 51.025280 8.090616 -3.727079 46.888211 56.365697 29.815172 0.000000 0.000000 0.000000 
-0.001137 0.957862 -0.002861 -1.569649 -0.920198 5.772477 4.925817 -0.380374 -5.554882 -4.885862 0.500764 -3.906985 4.391497 11.782614 13.036486 0.000000 0.000000 0.000000 -0.911146 0.728634 -7.475875 3.391746 -0.346648 -0.181453 -1.396282 -7.923504 12.594685 0.000000 0.000000 0.000000 -0.938432 0.035294 -0.270669 3.796414 -0.192242 -25.892775 -0.578780 1.422954 26.346925 1.296625 0.777439 -22.829846 0.000000 0.000000 0.000000 -19.998065 -1.480112 -0.578417 -47.175739 -11.220276 -3.352778 -31.753542 -21.060475 7.129405 0.000000 0.000000 0.000000 10.579627 3.603987 1.249516 49.141585 9.311413 -3.181995 56.533778 65.587846 42.783362 0.000000 0.000000 0.000000 
-0.001031 0.957670 -0.002897 -1.717141 -1.084601 6.047340 5.285649 -0.380560 -5.750991 -4.824489 0.496442 -4.086421 4.096507 11.405500 13.659196 0.000000 0.000000 0.000000 -0.928688 0.742815 -7.619222 3.643093 -0.373310 -0.615070 -1.460637 -8.178940 13.015850 0.000000 0.000000 0.000000 -1.001342 0.055091 -0.785407 4.014048 -0.232932 -25.990853 -0.798826 0.958100 26.761813 1.293174 0.651847 -22.398889 0.000000 0.000000 0.000000 -19.922147 -1.256575 -0.528470 -47.248553 -11.915302 -3.164568 -32.664582 -21.229713 7.445150 0.000000 0.000000 0.000000 9.635482 3.107859 0.968336 47.401200 11.478255 -2.347970 69.543956 75.247630 61.735804 0.000000 0.000000 0.000000 
-0.000720 0.957879 -0.003040 -1.676616 -1.659969 6.370448 5.307209 -0.388618 -6.021032 -4.901841 0.505782 -4.427551 3.894010 11.043042 13.774916 0.000000 0.000000 0.000000 -1.158761 0.753027 -7.775810 3.667003 -0.372121 -0.875343 -1.071876 -7.495081 12.855177 0.000000 0.000000 0.000000 -1.281681 0.083896 -1.435632 4.092240 -0.253623 -25.985474 -0.871831 1.054131 26.984916 1.682700 0.358191 -22.283423 0.000000 0.000000 0.000000 -19.302999 -1.187003 -0.443947 -47.955820 -12.365092 -3.056716 -32.667079 -20.941911 7.383000 0.000000 0.000000 0.000000 8.867357 2.700584 0.774161 44.828815 15.612103 -0.875249 105.013704 84.285341 105.698972 0.000000 0.000000 0.000000 
-0.000288 0.958133 -0.003105 -1.740578 -2.299467 6.646688 5.572474 -0.379197 -6.112594 -4.844966 0.508490 -4.484350 3.716549 10.811733 14.503084 0.000000 0.000000 0.000000 -1.141113 0.786418 -8.105109 3.629774 -0.365797 -1.262963 -1.020578 -7.609040 13.256377 0.000000 0.000000 0.000000 -1.219549 0.100877 -1.916418 4.187468 -0.277611 -26.030977 -1.030843 0.743057 27.106554 1.274887 0.448429 -21.553189 0.000000 0.000000 0.000000 -19.295107 -0.889030 -0.416457 -48.669624 -12.974891 -2.876016 -33.085150 -21.724177 7.843475 0.000000 0.000000 0.000000 6.787152 3.128322 0.937255 42.281783 20.897976 0.832040 -142.647867 79.742453 -128.982257 0.000000 0.000000 0.000000 
0.000169 0.958417 -0.003151 -1.807408 -3.131896 7.029499 5.752590 -0.370666 -6.211738 -4.804296 0.511827 -4.951210 3.499069 10.277491 13.930127 0.000000 0.000000 0.000000 -1.215263 0.803266 -8.271308 3.851935 -0.377871 -1.436885 -0.929716 -7.471411 12.957156 0.000000 0.000000 0.000000 -1.375521 0.116320 -2.207840 4.390201 -0.289522 -26.549072 -1.227171 1.166411 27.064709 1.947185 0.014640 -21.477187 0.000000 0.000000 0.000000 -17.846468 -0.586835 -0.475464 -49.908271 -13.256379 -2.762576 -34.646486 -21.557176 8.190239 0.000000 0.000000 0.000000 3.679825 3.074769 0.989306 37.596559 27.452872 2.454194 -125.133396 66.460679 -95.751199 0.000000 0.000000 0.000000 
0.000390 0.958968 -0.003139 -1.927311 -3.662136 7.246500 5.943514 -0.351288 -6.017561 -4.594258 0.500476 -5.400902 2.870002 9.316873 14.427111 0.000000 0.000000 0.000000 -0.959647 0.829364 -8.450339 3.406344 -0.338059 -1.579495 -0.714646 -7.269597 13.324112 0.000000 0.000000 0.000000 -1.104982 0.115744 -2.235191 4.246427 -0.224202 -27.098300 -1.459596 1.204142 27.092694 1.848445 -0.022866 -20.767339 0.000000 0.000000 0.000000 -17.304340 -0.645587 -0.333106 -50.412322 -13.925193 -2.507936 -35.650375 -21.291990 8.378938 0.000000 0.000000 0.000000 -0.737664 3.740830 1.316238 30.829055 33.222086 2.923911 -118.087923 50.898405 -69.706740 0.000000 0.000000 0.000000 
